<svg xmlns="http://www.w3.org/2000/svg" version="1.1" xmlns:xlink="http://www.w3.org/1999/xlink" xmlns:svgjs="http://svgjs.dev/svgjs" width="100%" height="100%" viewBox="0 0 1000 600"><rect width="1000" height="600" x="0" y="0" fill="#e2d1f9"/><g><circle r="166.66666666666666" cx="398.21959940592444" cy="420.44189820798545" fill="#317773" transform="matrix(0.539833329115894,0,0,0.539833329115894,0,73.03147952469165)"/><path d="M471.03293982483433 394.8547414888179L450.71506146077184 394.8547414888179L450.71506146077184 363.8160693093382L325.4062929553577 363.8160693093382L325.4062929553577 345.44190427158355L471.03293982483433 345.44190427158355L471.03293982483433 394.8547414888179ZM405.6755792277303 495.44190612525307L325.4062929553577 495.44190612525307L325.4062929553577 477.06774108749846L405.6755792277303 477.06774108749846L405.6755792277303 495.44190612525307ZM375.91246891864023 485.1766701206893L353.62050670754616 485.1766701206893L353.62050670754616 355.91973392121224L375.91246891864023 355.91973392121224L375.91246891864023 485.1766701206893ZM420.5267638615518 430.9349201084088L363.4605554219801 430.9349201084088L363.4605554219801 414.1096516275558L420.5267638615518 414.1096516275558L420.5267638615518 430.9349201084088ZM428.39272872895424 451.28316899319486L410.89930879218286 451.28316899319486L410.89930879218286 393.7614027427697L428.39272872895424 393.7614027427697L428.39272872895424 451.28316899319486Z " fill="#e2d1f9" transform="matrix(0.539833329115894,0,0,0.539833329115894,0,73.03147952469165)"/><path d="M685.8290287452935 488.7019703221294L664.8214441689868 488.7019703221294L721.1042645130085 356.9960859090065L751.7695025542562 356.9960859090065L808.7233985166877 488.7019703221294L785.3816378763469 488.7019703221294L733.3003344475865 357.63798432661594L737.9103321740538 357.63798432661594L685.8290287452935 488.7019703221294ZM716.4942667865412 492.4950064261848L648.2196169135444 492.4950064261848L648.2196169135444 474.84279994192707L716.4942667865412 474.84279994192707L716.4942667865412 492.4950064261848ZM774.4693647769876 441.4349050254393L697.3832002622621 441.4349050254393L702.1974383943325 425.6792165932093L769.8593670505203 425.6792165932093L774.4693647769876 441.4349050254393ZM825.2960485713296 492.4950064261848L756.6129178871269 492.4950064261848L756.6129178871269 474.84279994192707L825.2960485713296 474.84279994192707L825.2960485713296 492.4950064261848ZM776.9786040458242 365.8076005507352L695.8951630214405 365.8076005507352L695.8951630214405 348.3888116728809L776.9786040458242 348.3888116728809L776.9786040458242 365.8076005507352ZM919.2174579479009 492.4950064261848L833.6990824018523 492.4950064261848L833.6990824018523 474.84279994192707L917.1166994902702 474.84279994192707Q933.2808687337061 474.84279994192707 942.8509905962459 469.5033721954491Q952.3919352579852 464.1347672481707 952.3919352579852 451.53021650238674L952.3919352579852 451.53021650238674Q952.3919352579852 443.12718267186403 947.9861779371208 437.87528652778735Q943.5804206162564 432.62339038371067 935.5858675969398 430.318391520477Q927.6204917784236 428.0133926572434 917.1166994902702 428.0133926572434L917.1166994902702 428.0133926572434L875.1015303376568 428.0133926572434L875.1015303376568 411.82004621300695L910.6101837117752 411.82004621300695Q924.6735944975804 411.82004621300695 933.2808687337061 406.1596692577243Q941.8881429698318 400.4701151016412 941.8881429698318 388.3032223678636L941.8881429698318 388.3032223678636Q941.8881429698318 380.1044289429439 938.1242840665769 375.2610136100732Q934.3312479625215 370.4467754780029 928.0289725896295 368.22930821717057Q921.7266972167375 366.0410181571386 914.3740426150301 366.0410181571386L914.3740426150301 366.0410181571386L833.6990824018523 366.0410181571386L833.6990824018523 348.3888116728809L915.8620798558519 348.3888116728809Q931.617768288082 348.3888116728809 942.2090921786365 353.1155182025499Q952.8295932699915 357.84222473221894 958.2857298196712 366.33279016514285Q963.741866369351 374.85253279886723 963.741866369351 385.7648058982266L963.741866369351 385.7648058982266Q963.741866369351 395.21821895756455 959.7445898596926 402.2791015512677Q955.7764905508346 409.31080694417034 949.0365571659362 414.03751347383934Q942.3258009818383 418.76422000350834 933.8060583481139 420.9525100635403Q925.3154929151899 423.16997732437267 916.2705606670578 423.16997732437267L916.2705606670578 423.16997732437267L916.2705606670578 415.17542430505597Q926.9785933608142 415.17542430505597 937.1614364401629 416.8677019514806Q947.3734567203119 418.55997959790534 955.7764905508346 422.644787709965Q964.1795243813573 426.72959582202463 969.1980029190305 434.3156680301354Q974.2456586575042 441.87256303744573 974.2456586575042 453.22249414881145L974.2456586575042 453.22249414881145Q974.2456586575042 472.12932026748746 959.9780074660958 482.31216334683614Q945.6811790738872 492.4950064261848 919.2174579479009 492.4950064261848L919.2174579479009 492.4950064261848ZM882.2499445337611 482.6331125556408L860.8047019454481 482.6331125556408L860.8047019454481 358.2507055434249L882.2499445337611 358.2507055434249L882.2499445337611 482.6331125556408ZM1076.5701018645982 431.36877074929237L1034.3215151055815 431.36877074929237L1034.3215151055815 414.97118389945297L1076.774342270201 414.97118389945297Q1085.3816165063267 414.97118389945297 1092.4133218992292 412.02428661860995Q1099.4450272921322 409.10656653856734 1103.6465442073936 403.4170123824843Q1107.8480611226546 397.7566354272016 1107.8480611226546 389.9663228134879L1107.8480611226546 389.9663228134879Q1107.8480611226546 382.4094278061776 1103.8799618137969 377.0700000596996Q1099.8826853041385 371.7013951124212 1092.8509799112358 368.7544978315782Q1085.7900973175329 365.8076005507352 1076.774342270201 365.8076005507352L1076.774342270201 365.8076005507352L992.5397635593713 365.8076005507352L992.5397635593713 348.3888116728809L1076.1324438525917 348.3888116728809Q1092.530030702431 348.3888116728809 1104.4926830306058 353.5239990137559Q1116.4845125595807 358.68836355543124 1122.991028338076 368.02506781156757Q1129.497544116571 377.3617720677039 1129.497544116571 389.9663228134879L1129.497544116571 389.9663228134879Q1129.497544116571 401.958152342463 1123.0785599404771 411.411565401801Q1116.6887529651838 420.864978461139 1104.8136322394107 426.1168746052157Q1092.938511513637 431.36877074929237 1076.5701018645982 431.36877074929237L1076.5701018645982 431.36877074929237ZM1067.933650427672 492.4950064261848L992.5397635593713 492.4950064261848L992.5397635593713 475.04704034753L1067.933650427672 475.04704034753L1067.933650427672 492.4950064261848ZM1041.4699293016856 482.6331125556408L1019.6162059021666 482.6331125556408L1019.6162059021666 358.4549459490279L1041.4699293016856 358.4549459490279L1041.4699293016856 482.6331125556408ZM1127.1925452533374 495.4419037070278L1127.1925452533374 495.4419037070278Q1117.5348917883962 495.2376633014248 1109.3360983634766 491.56133600057115Q1101.137304938557 487.8850086997175 1094.3098399512571 478.9567852547871Q1087.4823749639575 470.0285618098568 1081.8219980086747 454.03945577122334L1081.8219980086747 454.03945577122334L1072.7770657605429 428.42187346844935L1090.6335126504032 426.1168746052157L1099.8826853041385 449.02097723355007Q1104.4926830306058 460.1374907385123 1109.3360983634766 465.91457649699674Q1114.1503364955468 471.69166225548105 1119.3147010372222 473.79242071311177Q1124.449888378097 475.89317917074237 1129.2933037109678 475.89317917074237L1129.2933037109678 475.89317917074237Q1133.6990610318321 475.89317917074237 1136.5292495094736 475.04704034753Q1139.3594379871147 474.2300787251181 1141.897854456752 473.38393990190576L1141.897854456752 473.38393990190576L1146.5078521832193 491.03614638616347Q1142.9482336855672 492.9034872373907 1138.0172867502952 494.1872840726095Q1133.0571626142228 495.4419037070278 1127.1925452533374 495.4419037070278ZM1170.2580936347658 395.86011737517396L1150.7093690984805 395.86011737517396L1150.7093690984805 348.3888116728809L1298.2001191446338 348.3888116728809L1298.2001191446338 395.86011737517396L1278.8556350139515 395.86011737517396L1278.8556350139515 365.8076005507352L1170.2580936347658 365.8076005507352L1170.2580936347658 395.86011737517396ZM1262.6914657705156 492.4950064261848L1186.218022472599 492.4950064261848L1186.218022472599 474.84279994192707L1262.6914657705156 474.84279994192707L1262.6914657705156 492.4950064261848ZM1235.3816058213167 481.34931572042206L1213.5278824217976 481.34931572042206L1213.5278824217976 358.0464651378219L1235.3816058213167 358.0464651378219L1235.3816058213167 481.34931572042206ZM1456.16548427814 492.4950064261848L1313.7223899704604 492.4950064261848L1313.7223899704604 474.84279994192707L1436.850177348258 474.84279994192707L1436.850177348258 446.07407995270705L1456.16548427814 446.07407995270705L1456.16548427814 492.4950064261848ZM1362.2732521023695 482.6331125556408L1340.6237691084534 482.6331125556408L1340.6237691084534 359.3010847722402L1362.2732521023695 359.3010847722402L1362.2732521023695 482.6331125556408ZM1404.4926616605858 428.42187346844935L1350.0771821677913 428.42187346844935L1350.0771821677913 412.25770422501336L1404.4926616605858 412.25770422501336L1404.4926616605858 428.42187346844935ZM1412.049556667896 447.97059800473477L1395.2434890068507 447.97059800473477L1395.2434890068507 392.91322009433094L1412.049556667896 392.91322009433094L1412.049556667896 447.97059800473477ZM1456.16548427814 394.8097381463586L1436.850177348258 394.8097381463586L1436.850177348258 366.0410181571386L1313.7223899704604 366.0410181571386L1313.7223899704604 348.3888116728809L1456.16548427814 348.3888116728809L1456.16548427814 394.8097381463586ZM1557.206130650015 495.2376633014248L1557.206130650015 495.2376633014248Q1541.6546826233885 495.2376633014248 1528.1164614519907 489.86905835414643Q1514.578240280593 484.5004534068681 1504.3662200004437 474.4343191307211Q1494.1833769210953 464.3390076537737 1488.4062911626106 450.6840776791743Q1482.6292054041264 437.029147704575 1482.6292054041264 420.660738055536L1482.6292054041264 420.660738055536Q1482.6292054041264 403.62125278808725 1488.3187595602094 389.7620824078849Q1493.9791365154924 375.9029120276826 1503.841030386036 366.0410181571386Q1513.7321014573804 356.1499470857942 1526.424183805566 350.8105193393162Q1539.1454433545514 345.44191439203786 1553.004613734754 345.44191439203786L1553.004613734754 345.44191439203786Q1567.5056825325655 345.44191439203786 1578.5346644351266 350.37286132730986Q1589.5636463376877 355.3038082625818 1597.2372501481996 363.61931049070324Q1604.9108539587119 371.9056355180242 1609.3166112795761 382.4094278061776L1609.3166112795761 382.4094278061776L1599.4255402082317 379.25829011973156L1599.4255402082317 348.3888116728809L1619.1785051501201 348.3888116728809L1619.1785051501201 395.21821895756455L1605.3193347699175 396.5020157927833Q1600.9135774490533 386.6109447214389 1594.290352867357 379.05404971412855Q1587.66712828566 371.49715470681826 1578.3304240295238 367.29563779155694Q1568.964542572587 363.09412087629556 1556.1557514212 363.09412087629556L1556.1557514212 363.09412087629556Q1546.0896171450531 363.09412087629556 1536.9279760937193 366.9746885827522Q1527.7955122431858 370.8552562892089 1520.6470980470817 378.3246196941179Q1513.5278610517776 385.7648058982266 1509.4138757389173 396.38530698958164Q1505.329067626858 407.0058080809367 1505.329067626858 420.42732044913265L1505.329067626858 420.42732044913265Q1505.329067626858 432.8276307893137 1509.3263441365161 443.24389147506577Q1513.2944434453743 453.6309749600174 1520.3553260390772 461.3045787705294Q1527.3870314319802 468.97818258104144 1536.840444491318 473.0629906931011Q1546.293857550656 477.1477988051607 1557.206130650015 477.1477988051607L1557.206130650015 477.1477988051607Q1566.4553033037505 477.1477988051607 1573.9246667086595 475.04704034753Q1581.3648529127681 472.94628188989935 1587.3461790768552 469.18242298664444Q1593.356682441743 465.38938688258906 1598.1709205738134 460.458439947317Q1603.0143359066842 455.52749301204506 1606.7781948099391 449.837938855962L1606.7781948099391 449.837938855962L1620.8707827965445 461.6255279793341Q1616.231607869277 468.5405245690351 1610.0460412995867 474.63855953632407Q1603.8604747298964 480.7365945036131 1595.9826305137813 485.4633010332821Q1588.1047862976661 490.19000756295117 1578.417955631925 492.6992468317878Q1568.7603021669838 495.2376633014248 1557.206130650015 495.2376633014248Z " fill="#317773" transform="matrix(0.539833329115894,0,0,0.539833329115894,0,73.03147952469165)"/></g></svg>